<svg width="116" height="117" viewBox="0 0 116 117" fill="none" xmlns="http://www.w3.org/2000/svg">
<path d="M89.7485 61.7467C89.6766 61.6389 89.5688 61.5671 89.461 61.5312C89.3532 61.4953 89.2094 61.4593 89.1016 61.4593C84.5738 61.4953 80.082 61.9262 75.6261 62.6445C74.1887 61.4593 72.8231 60.2742 71.4576 59.0171C72.8231 57.7242 74.2246 56.5031 75.662 55.3179C80.082 56.0721 84.5738 56.4672 89.0657 56.539C89.2454 56.5031 89.3532 56.4672 89.425 56.4313C89.6406 56.3235 89.8563 56.0721 89.9281 55.8207C89.9641 55.713 90 55.5693 90 55.4257C90 55.282 89.9641 55.1743 89.9281 55.0306C89.8922 54.9229 89.8203 54.8151 89.7125 54.7074C89.6406 54.5996 89.5328 54.5278 89.3891 54.4919C89.2813 54.456 89.1376 54.4201 89.0298 54.4201C85.2566 54.3841 81.4834 54.0609 77.7462 53.5222C80.6929 51.2237 83.7833 49.0688 87.0174 47.1294C87.233 46.9857 87.3768 46.8061 87.4127 46.5547C87.4846 46.3033 87.4127 46.0879 87.3049 45.8724C87.1611 45.6569 86.9815 45.5132 86.7299 45.4414C86.4784 45.3696 86.2268 45.4055 86.0112 45.5132C82.2381 47.8118 78.6086 50.3258 75.1948 53.0912C73.3981 52.768 71.6373 52.4088 69.8765 51.9779C70.3436 50.254 70.8108 48.566 71.3498 46.878C75.4823 45.3696 79.507 43.5738 83.388 41.4908C83.5677 41.3471 83.7114 41.1675 83.7473 40.9161C83.7833 40.7006 83.7473 40.4492 83.6395 40.2697C83.5317 40.0542 83.352 39.9105 83.1364 39.8387C82.9208 39.7669 82.6693 39.7669 82.4896 39.8387C79.1117 41.6344 75.662 43.1788 72.1044 44.5435C73.434 40.6647 75.0152 36.8937 76.8119 33.1945C76.8838 32.979 76.8838 32.7276 76.8119 32.4762C76.74 32.2607 76.5604 32.0811 76.3807 31.9375C76.1651 31.8297 75.9495 31.7938 75.7339 31.8656C75.5182 31.9375 75.3026 32.0452 75.1948 32.2607C73.1106 36.4627 71.3498 40.8443 69.9124 45.3336C68.2235 45.9083 66.5345 46.4829 64.8456 46.9498C64.4503 45.2259 64.091 43.4661 63.7675 41.7063C66.5705 38.2944 69.1218 34.667 71.4217 30.86C71.5295 30.6445 71.5654 30.3572 71.5295 30.1417C71.4576 29.8903 71.3139 29.6748 71.0983 29.5671C70.9905 29.4953 70.8826 29.4593 70.7389 29.4234C70.6311 29.3875 70.4874 29.4234 70.3796 29.4234C70.2718 29.4593 70.1639 29.4953 70.0561 29.603C69.9483 29.6748 69.8765 29.7826 69.8046 29.8903C67.8641 33.1226 65.708 36.2472 63.3723 39.2281C62.7973 35.4571 62.438 31.6861 62.3301 27.8791C62.3301 27.7714 62.2942 27.6277 62.2583 27.5199C62.2223 27.4122 62.1505 27.3045 62.0427 27.2326C61.9708 27.1608 61.863 27.089 61.7552 27.0171C61.6474 26.9812 61.5036 26.9453 61.3958 26.9453C61.1443 26.9453 60.9287 27.0531 60.749 27.2326C60.5693 27.4122 60.4975 27.6636 60.4975 27.915C60.6053 32.3684 61.0365 36.8219 61.7911 41.2035C60.5693 42.676 59.3116 44.1125 57.982 45.5132C56.9399 44.3639 55.8978 43.2147 54.8916 42.0295C55.8978 37.3965 56.5087 32.6917 56.7602 27.915C56.7602 27.6636 56.6524 27.4122 56.5087 27.2326C56.365 27.1249 56.1134 27.0171 55.8619 27.0171C55.6103 27.0171 55.3588 27.089 55.1791 27.2685C54.9994 27.4481 54.8916 27.6636 54.8557 27.915C54.6401 32.0452 54.137 36.1395 53.3464 40.1619C50.7591 36.9296 48.3874 33.5177 46.2673 29.9262C46.1954 29.8185 46.1235 29.7107 46.0157 29.6389C45.9079 29.603 45.8001 29.5312 45.6564 29.4953C45.5486 29.4593 45.4048 29.4593 45.297 29.4953C45.1892 29.5312 45.0455 29.5671 44.9377 29.6389C44.8299 29.7107 44.7221 29.7826 44.6502 29.8903C44.5783 29.9981 44.5065 30.1058 44.5065 30.2136C44.4705 30.3213 44.4705 30.465 44.5065 30.5727C44.5424 30.6804 44.5783 30.8241 44.6502 30.9318C47.0938 35.0261 49.8607 38.9049 52.8793 42.5682C52.5559 44.0766 52.1606 45.585 51.7653 47.0575C49.8248 46.447 47.9203 45.8005 46.0517 45.0822C44.6502 40.7725 42.9253 36.5345 40.9489 32.4762C40.877 32.3684 40.8052 32.2607 40.7333 32.1889C40.6255 32.117 40.5177 32.0452 40.4099 32.0093C40.3021 31.9734 40.1583 31.9734 40.0505 31.9734C39.9427 31.9734 39.799 32.0093 39.6912 32.0811C39.4756 32.1889 39.2959 32.4043 39.224 32.6558C39.1522 32.9072 39.1881 33.1586 39.2959 33.41C40.9848 36.8937 42.4582 40.5211 43.7518 44.1844C40.3021 42.7837 36.9601 41.1675 33.726 39.3718C33.6182 39.3 33.5104 39.2641 33.3666 39.2641C33.2229 39.2641 33.1151 39.2641 32.9714 39.3C32.8636 39.3359 32.7198 39.3718 32.612 39.4795C32.5042 39.5514 32.4323 39.6591 32.3605 39.7669C32.2167 39.9824 32.2167 40.2338 32.2527 40.4852C32.3245 40.7366 32.4683 40.952 32.6839 41.0598C36.457 43.1069 40.4099 44.9386 44.4705 46.5188C45.0814 48.4223 45.6204 50.3258 46.1235 52.2652C44.4346 52.6602 42.7097 52.9835 40.9848 53.3067C37.4992 50.4694 33.8338 47.8836 29.9888 45.5491C29.7732 45.4414 29.5216 45.4055 29.2701 45.4773C29.0185 45.5491 28.8389 45.6928 28.6951 45.9083C28.5514 46.1238 28.5154 46.3752 28.5873 46.5907C28.6592 46.8061 28.8029 47.0216 28.9826 47.1653C32.2527 49.1406 35.4149 51.3314 38.3975 53.6658C34.5884 54.2046 30.7793 54.4919 26.9343 54.5278C26.6828 54.5278 26.4672 54.6355 26.2875 54.8151C26.1437 55.0306 26.0359 55.282 26.0359 55.5334C26.0359 55.6771 26.0719 55.7848 26.1078 55.9285C26.1437 56.0362 26.2156 56.144 26.3234 56.2517C26.3953 56.3595 26.5031 56.4313 26.6109 56.4672C26.7187 56.5031 26.8624 56.539 26.9702 56.539C31.498 56.5031 35.9899 56.0721 40.4458 55.3538C41.8832 56.539 43.2847 57.7601 44.6143 59.0531C43.2847 60.3101 41.8832 61.4953 40.4818 62.6445C36.0258 61.8903 31.498 61.4953 26.9702 61.4593C26.7187 61.4593 26.4672 61.5671 26.2875 61.7467C26.1078 61.9262 26 62.1776 26 62.465C26 62.6086 26.0359 62.7164 26.0719 62.8241C26.1078 62.9318 26.1797 63.0396 26.2875 63.1473C26.3593 63.2551 26.4672 63.3269 26.6109 63.3628C26.7187 63.3987 26.8624 63.4347 26.9702 63.4347C30.7793 63.4706 34.5884 63.7938 38.3616 64.3325C35.379 66.667 32.2167 68.8219 28.9467 70.7972C28.8389 70.869 28.731 70.9408 28.6592 71.0486C28.5873 71.1563 28.5154 71.2641 28.4795 71.3718C28.4436 71.4795 28.4436 71.6232 28.4795 71.7309C28.5154 71.8387 28.5514 71.9823 28.6232 72.0901C28.6951 72.2338 28.8389 72.3415 28.9826 72.4133C29.1263 72.4852 29.306 72.5211 29.4497 72.5211C29.6294 72.5211 29.8091 72.4852 29.9528 72.3774C33.7979 70.0789 37.4632 67.5289 40.913 64.7276C42.6378 65.0149 44.3627 65.374 46.0876 65.7691C45.6204 67.5648 45.1173 69.3606 44.5424 71.1204C40.4458 72.6288 36.457 74.4245 32.612 76.5435C32.5042 76.6153 32.3964 76.6872 32.3245 76.7949C32.2527 76.9027 32.1808 77.0104 32.1449 77.1182C32.1089 77.2259 32.1089 77.3696 32.1089 77.4773C32.1089 77.585 32.1449 77.7287 32.2167 77.8364C32.2886 77.9442 32.3605 78.0519 32.4323 78.1238C32.5042 78.1956 32.648 78.2674 32.7558 78.3033C32.8636 78.3393 33.0073 78.3393 33.1151 78.3393C33.2229 78.3393 33.3666 78.3033 33.4745 78.2315C36.7805 76.4358 40.2302 74.8555 43.7518 73.4908C42.4582 77.2977 40.913 81.0329 39.1522 84.6602C39.0803 84.768 39.0444 84.9116 39.0444 85.0194C39.0444 85.163 39.0444 85.2708 39.0803 85.4145C39.1162 85.5222 39.1881 85.6659 39.26 85.7377C39.3318 85.8454 39.4396 85.9173 39.5474 85.9891C39.6912 86.0609 39.8349 86.0968 39.9787 86.0968C40.1583 86.0968 40.3021 86.0609 40.4818 85.9532C40.6255 85.8454 40.7333 85.7377 40.8411 85.5581C42.8894 81.392 44.6143 77.0463 46.0517 72.6288C47.7406 72.0183 49.4295 71.4795 51.1185 70.9767C51.5497 72.7006 51.909 74.4246 52.1965 76.1485C49.3936 79.5963 46.8422 83.2596 44.5783 87.0665C44.5065 87.1743 44.4705 87.282 44.4705 87.4257C44.4705 87.5693 44.4705 87.6771 44.4705 87.7848C44.5065 87.8926 44.5424 88.0362 44.6143 88.1081C44.6861 88.2158 44.7939 88.2876 44.9017 88.3595C45.0455 88.4672 45.2252 88.5031 45.3689 88.5031C45.5486 88.5031 45.6923 88.4672 45.836 88.3595C45.9798 88.2876 46.0876 88.144 46.1954 88.0003C48.1359 84.7321 50.292 81.6075 52.6277 78.6266C53.2027 82.3976 53.562 86.2046 53.6698 90.0115C53.6698 90.1193 53.7058 90.2629 53.7417 90.3707C53.7777 90.4784 53.8495 90.5862 53.9573 90.658C54.0292 90.7298 54.137 90.8017 54.2448 90.8735C54.3526 90.9094 54.4604 90.9453 54.6042 90.9453C54.712 90.9453 54.8557 90.9094 54.9635 90.8735C55.0713 90.8376 55.1791 90.7657 55.251 90.658C55.3229 90.5862 55.3947 90.4784 55.4307 90.3348C55.4666 90.227 55.5025 90.0834 55.5025 89.9756C55.3588 85.5222 54.9276 81.0688 54.1729 76.6872C55.3947 75.2147 56.6524 73.7781 57.9461 72.3415C59.0241 73.4549 60.0303 74.64 61.0365 75.8252C60.0663 80.4582 59.4194 85.199 59.2038 89.9397C59.2038 90.0474 59.2038 90.1911 59.2397 90.2988C59.2757 90.4066 59.3476 90.5143 59.4194 90.6221C59.4913 90.7298 59.5991 90.8017 59.7069 90.8376C59.8147 90.8735 59.9584 90.9094 60.0662 90.9094C60.3178 90.9094 60.5334 90.8017 60.7131 90.6221C60.8928 90.4425 61.0006 90.227 61.0006 89.9756C61.2162 85.8454 61.7552 81.7512 62.5458 77.6928C65.169 80.9251 67.5407 84.337 69.6968 87.9285C69.7687 88.0362 69.8405 88.144 69.9483 88.2158C70.0561 88.2876 70.1639 88.3595 70.2718 88.3954C70.3796 88.4313 70.5233 88.4313 70.6311 88.3954C70.7389 88.3595 70.8826 88.3235 70.9905 88.2517C71.2061 88.1081 71.3498 87.8926 71.4217 87.6771C71.4935 87.4257 71.4576 87.1743 71.3139 86.9588C68.8344 82.8645 66.0674 78.9857 63.0129 75.3224C63.3363 73.8499 63.6957 72.3415 64.1269 70.869C66.1033 71.4795 68.0438 72.126 69.9483 72.8443C71.3498 77.1541 73.0747 81.392 75.087 85.4504C75.1589 85.594 75.2667 85.7377 75.4104 85.8454C75.5542 85.9532 75.7339 85.9891 75.8776 85.9891C76.0573 85.9891 76.201 85.9532 76.3447 85.8813C76.4885 85.8095 76.5963 85.6659 76.7041 85.5222C76.776 85.3785 76.8478 85.199 76.8478 85.0553C76.8478 84.8757 76.8119 84.7321 76.74 84.5525C75.0511 81.0688 73.5418 77.4414 72.2482 73.7781C75.662 75.1788 79.0039 76.759 82.274 78.5547C82.4896 78.6625 82.7412 78.6984 82.9927 78.6625C83.2442 78.5907 83.4599 78.447 83.5677 78.2315C83.6395 78.1238 83.6755 78.016 83.7114 77.8724C83.7473 77.7646 83.7114 77.621 83.7114 77.5132C83.6755 77.4055 83.6395 77.2618 83.5677 77.19C83.4958 77.0822 83.388 77.0104 83.2802 76.9386C79.4711 74.8555 75.5542 73.0239 71.4935 71.4795C70.8826 69.612 70.3436 67.7085 69.8405 65.805C71.5654 65.41 73.2903 65.0508 75.0152 64.7635C78.4649 67.5648 82.1303 70.1148 85.9753 72.4133C86.119 72.5211 86.2987 72.557 86.4784 72.557C86.6581 72.557 86.8018 72.5211 86.9455 72.4492C87.0893 72.3774 87.1971 72.2338 87.3049 72.126C87.3768 72.0183 87.4127 71.9105 87.4486 71.7669C87.4846 71.6591 87.4486 71.5155 87.4486 71.4077C87.4127 71.3 87.3768 71.1922 87.2689 71.0845C87.1971 70.9767 87.0893 70.9049 86.9815 70.8331C83.7114 68.8578 80.5851 66.7029 77.6025 64.4043C81.3756 63.8656 85.1488 63.5783 88.9579 63.5065C89.2094 63.5065 89.461 63.3987 89.6047 63.2192C89.7844 63.0396 89.8922 62.7882 89.8922 62.5368C89.8922 62.3931 89.8563 62.2854 89.8203 62.1417C89.8922 61.9262 89.8203 61.8185 89.7485 61.7467ZM68.5469 64.0811C68.4391 64.117 68.3313 64.1529 68.2235 64.2248C68.1157 64.2966 68.0438 64.4044 67.9719 64.5121C67.9001 64.6198 67.8641 64.7276 67.8641 64.8712C67.8282 65.0149 67.8641 65.1226 67.8641 65.2663C68.2953 67.062 68.7984 68.8578 69.3015 70.6176C67.4688 69.9711 65.6362 69.3606 63.8035 68.8219C63.6957 68.7859 63.5519 68.7859 63.4441 68.7859C63.3363 68.7859 63.1926 68.8219 63.0848 68.8937C62.977 68.9655 62.8692 69.0373 62.7973 69.1451C62.7254 69.2528 62.6536 69.3606 62.6176 69.4683C62.2223 70.8331 61.863 72.1619 61.5396 73.5267C60.5693 72.4133 59.5991 71.3359 58.5929 70.2944C58.4132 70.1148 58.1976 70.007 57.9461 70.007C57.6946 70.007 57.4789 70.1148 57.2993 70.2944C56.0775 71.5873 54.8916 72.8802 53.7417 74.245C53.4183 72.6647 53.059 71.0486 52.6637 69.5042C52.5918 69.2528 52.4481 69.0733 52.2325 68.9296C52.0168 68.8219 51.7653 68.7859 51.5497 68.8219C49.9326 69.2528 48.3515 69.7556 46.7704 70.2944C47.2734 68.6064 47.7406 66.9184 48.1359 65.2304C48.1718 65.1226 48.1718 64.979 48.1359 64.8353C48.0999 64.6917 48.064 64.5839 48.0281 64.4762C47.9562 64.3684 47.8843 64.2607 47.7765 64.1889C47.6687 64.117 47.5609 64.0452 47.4531 64.0452C45.9438 63.6501 44.4346 63.3269 42.8894 63.0037C44.183 61.8903 45.4408 60.777 46.6625 59.5918C46.8422 59.4122 46.95 59.1967 46.95 58.9453C46.95 58.6939 46.8422 58.4784 46.6625 58.2988C45.4408 57.1137 44.1471 55.9644 42.8535 54.851C44.3987 54.5637 45.9438 54.2046 47.4531 53.8454C47.5609 53.8095 47.6687 53.7736 47.7765 53.7018C47.8843 53.6299 47.9562 53.5222 48.0281 53.4144C48.0999 53.3067 48.1359 53.199 48.1359 53.0553C48.1718 52.9116 48.1359 52.8039 48.1359 52.6602C47.7047 50.8645 47.2375 49.1047 46.6985 47.3449C48.4952 47.9913 50.292 48.566 52.0887 49.1047H52.3403C52.5559 49.1047 52.7355 49.0329 52.9152 48.9251C53.0949 48.8174 53.2027 48.6378 53.2746 48.4582C53.6698 47.0935 54.0292 45.7287 54.3526 44.3639C55.3229 45.4773 56.2931 46.5547 57.2993 47.6322C57.4789 47.8118 57.7305 47.9195 57.9461 47.9195C58.1976 47.9195 58.4132 47.8118 58.5929 47.6322C59.8147 46.3393 61.0365 45.0463 62.1864 43.6816C62.5098 45.2618 62.8692 46.878 63.2645 48.4582C63.3004 48.6737 63.4441 48.8174 63.5879 48.961C63.7316 49.1047 63.9472 49.1406 64.1628 49.1406H64.3784C65.9955 48.7096 67.5766 48.2068 69.1937 47.6681C68.6906 49.2843 68.2594 50.9363 67.8641 52.5884C67.8282 52.6962 67.8282 52.8398 67.8641 52.9835C67.8641 53.1271 67.936 53.2349 67.9719 53.3426C68.0438 53.4504 68.1157 53.5581 68.2235 53.6299C68.3313 53.7018 68.4391 53.7736 68.5469 53.8095C70.0921 54.2046 71.6373 54.5637 73.1825 54.851C71.8529 56.0003 70.5952 57.1496 69.3374 58.3348C69.1578 58.5143 69.05 58.7298 69.05 58.9812C69.05 59.2326 69.1578 59.4481 69.3374 59.6277C70.5592 60.8129 71.817 61.9622 73.1106 63.0396C71.6013 63.3628 70.0921 63.722 68.5469 64.0811Z" fill="white"/>
</svg>
